<svg xmlns="http://www.w3.org/2000/svg" viewBox="0 0 528 256" width="528" height="256"><defs></defs><g transform="matrix(1,0,0,1,-720,-432)">
<g>
	<g>
		<path d="M736,432C736,432 720,480 720,480 C720,480 1008,480 1008,480 C1008,480 1024,432 1024,432 C1024,432 736,432 736,432 Z" transform="" fill="#808080" stroke="#0000ff" stroke-width="4"/>
		<path d="M848,496C848,496 896,496 896,496 C896,496 896,688 896,688 C896,688 848,688 848,688 C848,688 848,496 848,496 Z" transform="" fill="#808080" stroke="#0000ff" stroke-width="4"/>
		<path d="M928,496C928,496 992,688 992,688 C992,688 1040,688 1040,688 C1040,688 1079.363258,560 1079.363258,560 C1079.363258,560 1120,688 1120,688 C1120,688 1168,688 1168,688 C1168,688 1248,432 1248,432 C1248,432 1200,432 1200,432 C1200,432 1144.528897,624 1144.528897,624 C1144.528897,624 1079.363258,432 1079.363258,432 C1079.363258,432 1016.033271,624 1016.033271,624 C1016.033271,624 976,496 976,496 C976,496 928,496 928,496 Z" transform="" fill="#808080" stroke="#0000ff" stroke-width="4"/>
	</g>
</g></g></svg>