<?xml version="1.0" encoding="UTF-8"?>
<!DOCTYPE svg PUBLIC "-//W3C//DTD SVG 1.1//EN" "http://www.w3.org/Graphics/SVG/1.1/DTD/svg11.dtd">
<!-- Creator: CorelDRAW SE -->
<svg xmlns="http://www.w3.org/2000/svg" xml:space="preserve" width="301.012mm" height="298.896mm" version="1.1" style="shape-rendering:geometricPrecision; text-rendering:geometricPrecision; image-rendering:optimizeQuality; fill-rule:evenodd; clip-rule:evenodd"
viewBox="0 0 6836 6788"
 xmlns:xlink="http://www.w3.org/1999/xlink">
 <defs>
  <style type="text/css">
   <![CDATA[
    .fil4 {fill:#212121}
    .fil2 {fill:#998054}
    .fil1 {fill:#C9A971}
    .fil0 {fill:#F2CB88}
    .fil3 {fill:#FCE1B3}
   ]]>
  </style>
 </defs>
 <g id="Vrstva_x0020_1">
  <metadata id="CorelCorpID_0Corel-Layer"/>
  <g id="_613456584">
   <path class="fil0" d="M482 722c375,-1 1091,-11 1810,-17 720,-6 1443,-8 2062,-16 619,-9 1135,-23 1401,-16 266,7 283,36 285,111 3,75 -9,197 -14,578 -5,380 -3,1020 1,1632 4,612 8,1197 18,1800 9,604 24,1227 31,1552 7,324 7,350 -36,361 -43,11 -129,6 -469,2 -340,-3 -934,-6 -1478,-6 -544,0 -1038,3 -1446,-1 -408,-3 -731,-13 -1058,-8 -326,5 -658,24 -887,31 -229,7 -356,2 -430,-10 -74,-12 -95,-31 -106,-53 -11,-23 -11,-49 -7,-338 3,-289 11,-840 7,-1348 -4,-509 -18,-974 -31,-1442 -13,-467 -25,-937 -41,-1390 -15,-452 -34,-886 -44,-1123 -9,-236 -9,-274 7,-289 17,-16 51,-9 425,-10z"/>
   <path class="fil1" d="M3809 1175c-134,-5 -293,-1 -398,60 -105,62 -156,181 -120,246 36,65 159,76 234,137 76,62 105,174 146,136 41,-38 95,-227 178,-344 84,-117 197,-162 200,-191 2,-28 -107,-40 -240,-44z"/>
   <path class="fil1" d="M520 426c184,-6 525,-15 1137,-26 613,-11 1496,-23 2331,-30 835,-7 1623,-10 2018,-4 394,6 397,21 399,43 3,23 5,54 6,437 1,383 1,1118 7,1902 6,784 18,1617 31,2222 14,605 28,982 31,1174 4,192 -3,199 -13,203 -9,3 -21,3 -83,2 -62,-1 -174,-4 -232,-18 -57,-14 -59,-40 -75,-258 -15,-217 -44,-625 -50,-1071 -6,-446 11,-931 14,-1494 4,-563 -6,-1205 -10,-1692 -5,-487 -5,-818 -16,-987 -11,-168 -32,-173 -101,-174 -70,-1 -186,1 -568,12 -382,11 -1029,30 -1651,37 -621,7 -1218,2 -1713,1 -495,-1 -889,1 -1150,-1 -261,-2 -390,-9 -456,-17 -66,-7 -68,-14 -66,-40 3,-26 10,-72 6,-110 -3,-38 -18,-69 -12,-86 6,-17 33,-19 216,-25z"/>
   <path class="fil2" d="M1055 105c177,7 501,19 1014,18 513,-1 1215,-16 1876,-26 661,-11 1281,-18 1729,-27 447,-8 722,-17 863,-19 140,-1 147,6 151,40 4,33 4,93 17,646 13,554 39,1602 50,2470 11,869 6,1559 12,1949 6,390 22,481 26,580 4,99 -6,206 -27,259 -22,52 -55,50 -108,50 -52,0 -124,2 -157,-16 -34,-18 -29,-56 -36,-368 -7,-313 -26,-900 -32,-1572 -6,-672 1,-1428 7,-1934 6,-506 11,-761 6,-995 -5,-234 -19,-446 -31,-576 -12,-131 -22,-178 -42,-202 -20,-24 -51,-24 -477,-19 -426,5 -1247,14 -1881,16 -633,3 -1080,-2 -1554,6 -475,9 -979,30 -1308,37 -330,8 -485,0 -563,-16 -79,-17 -82,-43 -79,-91 2,-48 9,-117 25,-155 15,-38 39,-45 88,-51 49,-6 123,-11 174,-12 52,-1 80,1 257,8z"/>
   <path class="fil3" d="M2208 895c-371,-18 -1189,-39 -1603,-24 -414,16 -424,68 -421,375 2,306 16,867 41,1151 25,284 61,291 103,255 42,-35 89,-114 126,-332 37,-219 64,-577 84,-801 20,-224 34,-315 73,-354 38,-40 100,-28 207,-47 108,-19 260,-69 487,-95 227,-27 528,-29 727,-39 199,-9 297,-26 384,-41 87,-16 163,-30 -208,-48z"/>
   <path class="fil3" d="M4299 895c-216,-11 -572,-11 -758,3 -186,15 -203,43 -192,68 11,26 49,47 273,43 225,-3 635,-32 802,-57 167,-25 91,-46 -125,-57z"/>
   <path class="fil3" d="M726 3124c-58,15 -99,44 -117,100 -17,56 -13,140 51,161 63,22 185,-19 381,-52 197,-34 469,-60 836,-84 366,-24 827,-45 1057,-68 230,-23 230,-47 -141,-60 -371,-13 -1113,-15 -1522,-15 -410,0 -486,2 -545,18z"/>
   <path class="fil3" d="M893 5285c-57,25 -90,87 -82,120 7,32 56,36 368,22 311,-14 885,-45 1164,-77 279,-33 264,-68 9,-78 -255,-11 -749,2 -1035,2 -287,0 -367,-13 -424,11z"/>
   <path class="fil1" d="M5963 4706c-40,271 -102,841 -168,1168 -65,327 -135,411 -260,473 -125,62 -307,102 -691,146 -384,44 -971,92 -1271,130 -299,39 -311,67 -217,84 95,17 295,21 599,21 305,0 713,-4 1075,-8 363,-4 680,-6 843,-10 162,-3 169,-8 176,-56 8,-47 15,-138 18,-379 4,-241 4,-632 -1,-955 -5,-322 -14,-575 -29,-716 -14,-140 -33,-169 -74,102z"/>
   <path class="fil1" d="M2232 1768c-171,17 -434,26 -573,97 -139,70 -154,201 -150,351 4,150 28,318 72,348 44,30 109,-79 301,-104 193,-25 514,34 692,70 178,36 212,51 218,36 6,-15 -17,-59 -42,-103 -26,-45 -55,-89 136,-107 191,-17 602,-9 809,15 207,24 210,63 249,49 39,-13 113,-80 187,-153 74,-73 148,-152 63,-188 -86,-36 -330,-30 -630,-21 -299,10 -654,23 -829,-36 -176,-58 -172,-188 -211,-241 -39,-53 -120,-30 -292,-13z"/>
   <path class="fil1" d="M547 5588c-73,4 -169,38 -203,195 -35,158 -9,439 61,418 69,-22 181,-346 230,-414 49,-68 35,120 94,178 60,57 193,-17 612,-50 419,-34 1123,-27 1479,-39 355,-12 362,-43 -37,-72 -400,-30 -1207,-59 -1618,-88 -412,-28 -429,-57 -462,-83 -33,-26 -84,-50 -156,-45z"/>
   <g>
    <path class="fil4" d="M5770 6419l21 24c16,16 -2,3 16,14 7,-104 33,-115 83,-164 39,-39 79,-92 142,-106l0 440c-7,44 -5,17 -12,31 -79,33 -296,6 -403,0 10,-69 34,-79 72,-126 33,-40 54,-70 81,-113zm648 -248l26 156 -159 -17c-2,-49 89,-121 133,-139zm-250 126c31,-68 161,-188 245,-217 -2,101 19,32 -97,144 -43,40 -61,80 -148,73zm-347 10c3,-104 -2,-149 55,-207 27,-27 37,-33 67,-58 37,-31 36,-42 86,-45l4 110c-70,63 -111,163 -212,200zm309 -25c-10,-90 -9,-33 40,-94 61,-77 83,-107 175,-168 41,-28 27,-18 67,-32 -22,79 -46,62 -143,148 -68,60 -90,85 -139,146zm406 -287c15,-7 -1,-10 27,-7 3,1 24,8 31,10 -66,33 -51,1 -58,-3zm-413 174l-2 -154c79,-48 199,-195 282,-228l8 149c-46,31 -95,69 -141,106 -21,17 -48,37 -66,56 -11,11 -22,28 -31,37 -37,38 -12,16 -50,34zm405 -336l177 88 5 78c-68,3 -59,3 -144,-56l-38 -110zm-4 -155c52,8 81,42 116,66 63,43 55,37 57,131 -82,-4 -110,-51 -169,-85l-4 -112zm-409 292c-1,-128 29,-130 98,-194 44,-41 121,-107 184,-132l0 99c-39,21 -89,81 -131,115 -72,59 -97,99 -151,112zm408 -473l152 102 9 129c-74,-15 -34,-4 -79,-44 -36,-32 -39,-28 -78,-45l-4 -142zm-395 197c65,-12 31,-5 60,-52 25,-40 162,-131 207,-147 2,81 16,85 -35,129 -37,31 -223,185 -256,191l-13 -296c72,-51 204,-178 302,-217l1 143c-70,75 -248,149 -266,249zm394 -352c54,20 78,55 155,100l3 104c-92,-14 -60,-52 -159,-93l1 -111zm-8 -62l1 -69c53,1 49,13 84,38l50 33c34,28 25,23 23,102 -58,-11 -122,-62 -158,-104zm-416 193c-10,-83 -10,-73 20,-121 22,-35 42,-44 80,-72 59,-44 123,-86 198,-113 -3,130 -38,106 -125,174 -58,46 -111,104 -173,132zm412 -401c72,21 103,64 169,95l1 92c-52,-11 -69,-36 -106,-66 -64,-52 -66,-24 -64,-121zm-419 247l8 -141c76,-53 196,-149 292,-187l3 130c-41,22 -108,68 -150,96 -29,20 -49,27 -76,48 -30,23 -37,40 -77,54zm403 -417c89,15 102,63 187,97l-2 120c-27,-7 -158,-76 -174,-120 -6,-17 -8,-71 -11,-97zm-390 240l-4 -124c54,-40 230,-174 289,-192l6 118c-90,50 -212,137 -291,198zm390 -376c69,21 133,68 181,104l4 95c-53,-13 -66,-41 -107,-69 -88,-60 -87,-4 -78,-130zm-394 206c4,-94 28,-143 103,-194 59,-40 116,-93 184,-101l2 96c-53,45 -225,183 -289,199zm396 -369c77,34 88,96 169,126l7 100 -162 -100c-2,-1 -5,-4 -6,-5 -17,-25 -9,-89 -8,-121zm167 -50l8 139c-84,-28 -59,-52 -174,-127l5 -245c51,4 103,53 168,75l-1 121c-69,-26 -80,-55 -133,-93 -6,52 82,105 127,130zm-527 60c30,-23 14,-21 45,-50 23,-20 44,-31 65,-46 69,-50 78,-83 148,-94l-16 204c-88,53 -179,141 -267,189l2 -347c63,-54 194,-144 280,-181 1,184 -262,206 -257,325zm375 -350l-2 -105c72,19 117,63 170,98l-9 100c-54,-15 -118,-56 -159,-93zm-399 154l50 -203c27,-36 190,-145 227,-158l3 185c-74,41 -196,162 -280,176zm400 -394l166 103 0 63c-8,0 -14,-2 -15,2l-153 -87 2 -81zm-402 192c-8,-158 38,-167 221,-285 35,-22 28,-18 63,-31l-1 107c-38,22 -88,61 -138,96 -26,19 -52,34 -69,53 -46,48 -9,35 -76,60zm405 -364c62,23 101,85 162,123l0 107c-54,-13 -111,-76 -163,-105l1 -125zm-407 186l2 -109c57,-40 195,-158 271,-179l16 74c-52,65 -208,194 -289,214zm412 -241l2 -142c190,102 155,117 156,270 -59,-17 -60,-35 -120,-90 -3,-2 -12,-10 -15,-13 -26,-25 -4,-3 -23,-25zm-411 89c-2,-135 12,-137 91,-197 41,-31 121,-96 178,-117l0 134c-49,24 -86,55 -130,87 -60,43 -87,73 -139,93zm413 -380c62,31 107,88 160,130l-2 80c-96,-30 -81,-68 -158,-108l0 -102zm-403 213c0,-134 -2,-95 184,-230 28,-20 48,-29 76,-42l-2 80 -258 192zm406 -449c65,24 96,75 163,104l-6 218c-68,-31 -98,-90 -160,-131l3 -191zm-409 305c-1,-177 -1,-94 169,-241 39,-33 27,-43 91,-49 6,136 1,116 -176,240 -40,27 -37,40 -84,50zm-16 -148l1 -113c68,-36 187,-152 259,-161 3,85 -4,72 -102,156 -41,36 -119,108 -158,118zm414 -318c74,13 109,75 169,105l5 124c-70,-22 -73,-42 -126,-85 -60,-48 -48,-50 -48,-144zm-410 158c2,-67 -3,-139 15,-193 31,-49 169,-142 237,-165l-1 191c-78,32 -147,133 -251,167zm409 -285c84,11 75,57 168,95l2 92c-49,-19 -59,-36 -103,-71 -56,-45 -69,-26 -67,-116zm-416 48l5 -116c49,-39 200,-162 260,-175 -1,154 5,108 -94,180 -58,42 -104,92 -171,111zm398 -264c32,40 132,116 185,146l2 119c-92,-32 -143,-108 -218,-149l11 -266c67,7 76,66 204,134l1 112c-46,-16 -47,-28 -85,-54 -32,-22 -57,-42 -82,-61 -3,3 -18,14 -18,19zm-394 109l1 -137c61,-46 183,-150 260,-178l0 122c-49,42 -206,168 -261,193zm378 -329l6 -109 192 149 4 118c-62,-22 -106,-64 -152,-106 -6,-5 -15,-14 -20,-19l-22 -24c-2,-2 -5,-6 -8,-9zm-379 151l-4 -142c84,-44 170,-123 269,-149l-3 99c-61,51 -204,164 -262,192zm394 -415c75,28 89,72 176,94l3 148c-96,-34 -115,-86 -181,-133l2 -109zm-405 235l-2 -109c65,-58 197,-174 279,-209l1 146c-78,38 -197,157 -278,172zm411 -424c35,7 21,3 44,24 133,121 121,110 125,214 -72,-12 -124,-68 -168,-102l-1 -136zm-390 269c-16,-15 -33,29 -36,-67 -4,-95 271,-263 301,-275 3,151 -21,130 -103,203 -38,34 -145,111 -162,139zm390 -408c62,8 120,50 164,81l2 153c-83,-41 -165,-134 -166,-234zm-420 231l3 -137c52,-45 204,-165 293,-179 3,122 -37,118 -113,180 -80,66 -114,116 -183,136zm417 -425c58,23 103,45 164,98l4 126c-54,-11 -109,-52 -155,-78 -6,-65 1,-106 -13,-146zm-423 239l-4 -144c55,-34 189,-203 306,-233l1 184 -223 149c-42,35 -19,36 -80,44zm424 -305l-2 -74c70,19 85,52 166,76l1 108c-37,-6 -140,-81 -165,-110zm-3 -252c69,30 81,61 163,91l-1 115c-83,-16 -103,-51 -161,-88l-1 -118zm-426 349c-56,-169 65,-218 192,-309 39,-27 62,-56 114,-64 0,239 9,105 -225,325l-57 52c-2,1 -6,1 -8,1l-16 -5zm430 -563l153 106 2 156c-58,-17 -97,-45 -130,-82 -34,-36 -30,-115 -25,-180zm-432 335c-32,-108 37,-166 96,-220 33,-29 58,-44 94,-71 48,-36 54,-61 117,-61l2 152c-67,35 -102,67 -156,107 -65,47 -111,97 -153,93zm-1 -194l6 -119c58,-35 171,-207 288,-243l4 140c-84,51 -207,192 -298,222zm404 -308c59,43 107,99 180,137l4 87c-91,-35 -189,-118 -184,-224zm-8 -156c82,25 109,73 188,124l3 121c-100,-28 -27,-41 -177,-123 -3,-2 -8,-5 -11,-7l-3 -115zm-391 285c-4,-62 -5,-95 32,-129l-39 -27 18 -102c14,-123 116,-233 221,-369 38,-50 13,-34 63,-55 -7,302 -246,401 -259,493 -10,65 -11,5 16,42 16,-65 130,-205 181,-259 36,-37 13,-16 51,-33 0,184 23,171 -90,269 -72,64 -143,150 -194,170zm390 -436l22 -4c31,7 29,14 66,42 31,24 55,41 92,60l4 121c-89,-30 -109,-87 -186,-129l2 -90zm-438 5194c-83,38 -107,104 -182,144 2,-41 12,-155 24,-192 25,-78 73,-46 94,-120 -51,12 -15,20 -86,43l9 -282c-40,36 -33,30 -34,111 0,52 -4,104 -7,157 -51,38 -72,51 -89,123 69,-45 22,-43 89,-77 -28,85 -144,143 -125,194 19,-10 9,1 26,-24l30 -42c2,-2 5,-5 7,-7l45 -46c8,61 6,184 -36,235 -63,79 -189,196 -203,251 20,-12 78,-85 100,-107 61,-65 68,-88 120,-114 -14,162 0,158 -83,260 -217,265 10,195 -803,191l-1389 -5c-590,1 -1417,20 -1979,-20l-1143 49c-49,7 -116,7 -158,9 -23,-184 9,-838 -18,-1083 -14,-122 1,-270 -10,-374 -19,-189 7,-443 -32,-743 -8,-67 10,-104 8,-174 -5,-212 -19,-301 -15,-563 2,-132 -3,-247 -7,-371 -26,-838 -57,-1788 -64,-2603 247,4 488,-10 738,-13 246,-2 479,21 729,12 249,-10 494,8 742,9 253,0 500,-13 756,-6 967,28 1928,-44 2902,-53l-22 963c0,91 25,231 17,312l14 1310c3,226 2,448 0,673 -2,222 20,453 8,674 -12,217 -19,438 -15,660 4,222 40,426 42,639zm445 -5354c43,22 67,50 101,81 52,47 73,32 70,128 -72,-21 -121,-82 -168,-123l-3 -86zm6 -95c43,12 61,35 98,64 52,41 69,26 65,115 -44,-16 -158,-117 -163,-179zm-4717 153l-71 4c13,-54 23,-69 45,-115 38,-86 -9,-81 88,-87 -4,51 -30,160 -62,198zm-567 6l-87 0c2,-37 -10,26 2,-19l9 -29c9,-26 0,-2 12,-29 26,-59 34,-104 81,-124 11,15 31,-28 1,95 -7,32 -16,65 -18,106zm-387 -4c10,-44 18,-65 31,-103 8,-23 8,-27 18,-50 2,-4 7,-15 9,-19 14,-26 7,-12 17,-26l73 0c-3,58 -17,85 -36,133 -28,74 -17,60 -112,65zm-105 -4c5,-46 17,-73 31,-121 23,-80 17,-70 95,-72 -17,186 -50,199 -126,193zm4320 -31c-9,-71 10,-83 41,-131 47,-73 18,-58 110,-52 -7,190 -69,186 -151,183zm-2118 30l-97 -1c3,-59 48,-161 81,-208l89 -3c-5,84 -42,152 -73,212zm-1844 4l-128 1c10,-64 37,-150 73,-195l124 -2c-2,62 -39,149 -69,196zm-599 0c8,-68 15,-68 37,-125 31,-77 14,-76 96,-73 -6,54 -19,71 -36,116 -31,85 2,76 -97,82zm4352 -20l-113 3c9,-75 59,-145 89,-200l100 -2c-15,81 -52,129 -76,199zm-301 2l-99 3c11,-78 36,-147 84,-195l88 -3c-16,86 -62,94 -73,195zm-133 5l-103 -3c9,-92 49,-122 82,-194l72 1c-3,59 -38,120 -51,196zm-384 5c5,-78 30,-149 76,-202l86 -3c-8,58 -25,72 -47,125 -31,77 -9,74 -115,80zm-478 14l-109 1c-7,-17 -22,-1 -9,-61 5,-23 60,-134 81,-143l98 -5 -61 208zm-311 -7l-101 -1c6,-54 26,-85 51,-132 44,-80 22,-84 125,-85l-75 218zm-565 -1l-123 1c1,-57 30,-157 65,-203l101 -8c-12,85 -45,108 -43,210zm-289 4l-139 -2 76 -204 139 -2c-12,65 -33,155 -76,208zm-426 -7l-114 2c3,-65 38,-147 73,-195l102 -5c-10,64 -45,125 -61,198zm-489 18l-89 1 58 -209c94,-2 114,-2 93,49 -27,65 -33,55 -62,159zm-136 1l-62 -8c-1,-114 30,-110 37,-204l90 -1c-5,32 -52,183 -65,213zm-636 -18l-92 1c-4,-87 44,-129 70,-197l75 2c-14,69 -26,140 -53,194zm-251 0c-10,-18 -24,33 -5,-87 7,-40 7,-64 6,-105l70 -2c-8,33 -16,61 -28,97l-26 70c-15,32 -6,13 -17,27zm4550 -27l-115 6c19,-65 52,-143 89,-196l109 -5c-14,73 -62,112 -83,195zm-736 17l-113 2c11,-73 55,-143 88,-200l101 2 -76 196zm-279 9l-128 -28c-2,-22 -6,-4 0,-37 2,-12 17,-38 23,-50 16,-30 33,-63 49,-87l121 -2c-9,68 -49,124 -65,204zm-195 2l-47 -3c-1,-3 -40,-7 8,-105 19,-37 27,-59 53,-90l82 1 -96 197zm-110 0c-160,11 -37,-167 -13,-195l82 -3 -69 198zm-288 12l-121 -1c6,-87 60,-144 86,-225 53,11 46,17 103,20 -25,93 -57,143 -68,206zm-573 -22l-111 9c-1,-58 8,-74 17,-103 15,-44 15,-58 35,-101l113 -5 -54 200zm-307 -191l58 2c-9,32 -18,68 -29,102l-43 103 -60 -1c12,-42 24,-70 41,-107l33 -99zm-440 204l-71 -2c5,-45 13,-69 30,-110l41 -85c1,-2 3,-6 5,-10l208 1c-22,76 -50,136 -73,204l-84 -3c4,-81 30,-94 43,-135 23,-75 9,-23 -3,-48 -39,30 -27,41 -50,91l-28 67c-19,41 -2,8 -18,30zm-383 10l-183 4 82 -210 165 0c-19,61 -47,138 -64,206zm4827 -309c63,21 30,13 84,56 26,21 46,40 81,55l-2 94c-55,-16 -63,-36 -104,-68 -58,-47 -58,-41 -59,-137zm-423 262l-139 0c15,-80 49,-150 89,-200l141 -2c-9,83 -63,138 -91,202zm-351 -3l-137 -1c26,-78 61,-127 88,-190l147 1 -66 147c-15,28 -11,21 -32,43zm-249 -3c9,-53 25,-74 48,-120 36,-72 20,-65 112,-70 -14,68 -29,71 -54,125 -36,75 -16,73 -106,65zm-53 -1l-111 3c20,-62 53,-140 97,-186l112 0 -98 183zm-146 1l-85 0c8,-63 38,-107 49,-185l108 -4c-14,72 -46,129 -72,189zm-597 23l-110 6c7,-91 47,-138 75,-200l122 -2c-27,90 -59,107 -87,196zm-1594 16l-115 2c9,-89 54,-126 67,-213l142 1c-13,47 -66,170 -94,210zm3021 144c-9,-118 -44,-164 113,-347 2,-3 5,-6 7,-9l14 -16c1,-1 4,-5 7,-7l96 4c-25,150 -56,137 -156,281l-51 72c-17,15 -12,8 -30,22zm-217 -174l-111 2c3,-62 56,-162 86,-203l105 -1c-9,45 -58,168 -80,202zm-4368 -272c-68,-19 -99,0 -167,-56 -95,-78 -89,-44 -117,-105l124 5c46,82 118,80 160,156zm-863 -8c-96,3 -62,11 -76,-41 33,-18 14,-17 44,2 39,23 22,24 32,39zm269 6c-70,-24 -226,-110 -269,-170 56,1 71,-6 94,16 3,3 11,13 14,16 94,101 135,86 161,138zm-302 -171c2,3 5,8 7,10 71,100 126,64 176,154 -62,2 -235,-54 -207,-135 11,-31 10,-14 24,-29zm2319 142c-83,38 -142,-40 -166,-112 96,-7 60,-13 106,42 23,28 41,43 60,70zm-248 18c-76,-86 -83,-57 -96,-125 87,3 82,-12 138,31 57,43 63,44 72,91l-114 3zm-158 2c-85,3 -198,5 -240,-127l102 1c77,86 96,57 138,126zm-353 -1c-52,-56 -78,-48 -109,-121l180 1c18,30 22,34 48,60 21,20 10,3 28,28 16,23 3,4 18,38l-165 -6zm465 5c-76,-3 -76,-16 -121,-55 -26,-22 -57,-49 -75,-75 97,0 50,-11 135,55 6,5 36,29 38,31 31,38 5,-1 23,44zm-522 -3c-96,0 -167,-61 -214,-129l89 0c3,1 100,85 125,129zm-125 13c-88,-8 -103,3 -158,-42 -74,-60 -81,-56 -103,-105 124,2 78,-16 215,89 49,38 26,11 46,58zm-165 0c-63,-1 -230,-86 -254,-155 100,2 96,12 151,58 73,61 74,41 103,97zm-132 4c-99,-7 -249,-65 -288,-161 120,2 91,10 165,60l100 70c18,17 14,16 23,31zm4877 -178c-35,-27 -34,-30 -51,-69 53,8 114,68 143,109l-92 -40zm-3056 145c-93,6 -161,-59 -187,-141 90,-4 74,10 117,56 37,40 49,32 70,85zm-360 5c-70,-4 -159,-101 -152,-129 15,-10 1,-8 30,-14l81 1 115 105c13,17 53,44 -74,37zm-104 0c-91,-2 -150,-63 -177,-138 81,-1 68,-4 146,87 30,35 15,14 31,51zm1124 -64c38,37 38,24 59,72 -97,1 -234,16 -310,-167 155,-18 126,-28 251,95zm-165 72c-99,7 -102,-7 -154,-56 -41,-38 -67,-50 -84,-109l85 -2c53,40 124,114 153,167zm-231 1c-42,-41 -114,-101 -127,-165l82 1c27,39 17,46 59,88l61 68c1,-3 4,7 6,11l-81 -3zm-48 -6c-172,11 -217,-51 -284,-149l135 -3c46,42 111,107 149,152zm-360 -7c-100,4 -151,-63 -180,-145 91,-1 67,-6 114,47 38,43 51,37 66,98zm-2035 18c-107,1 -110,-2 -166,-56 -42,-40 -70,-48 -90,-103 105,-2 78,17 143,62 92,63 84,34 113,97zm-160 4c-85,-3 -211,-92 -251,-168l86 2c3,1 153,132 165,166zm-142 -4c-93,-12 -220,-102 -255,-157 93,-7 92,13 148,55 22,17 36,28 54,42 58,45 34,21 53,60zm3807 -14c-126,1 -109,15 -183,-53 -41,-39 -72,-62 -96,-127l129 -1c38,65 72,84 115,131l35 50zm-472 8c-120,0 -220,-124 -241,-182 106,2 64,22 133,79 48,40 86,64 108,103zm1475 -10c-112,-4 -115,15 -181,-52 -44,-44 -73,-60 -95,-135l100 -3c49,64 128,120 157,156 19,25 1,-3 19,34zm-308 1c-90,-1 -100,-20 -145,-70 -36,-40 -73,-62 -94,-120l72 -1c2,1 152,151 167,191zm-256 -2c-49,-61 -116,-103 -150,-187l101 -2c3,1 148,139 172,189l-123 0zm-38 8c-128,14 -140,2 -205,-51 -33,-28 -106,-96 -117,-135 55,-9 112,-14 154,1l168 185zm-220 -1c-112,-4 -125,-10 -188,-67 -30,-28 -82,-83 -100,-122 133,-5 111,-13 178,58l84 80c21,28 10,10 26,51zm1127 -14c-123,18 -229,-135 -250,-191l79 0c37,62 120,136 171,191zm-136 1c-115,16 -197,-52 -259,-136 -26,-36 -7,-8 -24,-47l127 -1c35,79 106,121 156,184zm-351 8c-89,-4 -98,-27 -142,-75 -57,-63 -63,-47 -91,-117l86 1c49,118 112,108 147,191zm-1077 -7c-37,-59 -165,-99 -206,-176l121 2 171 191c-111,-5 -195,22 -274,-34 -58,-41 -121,-80 -146,-151 72,0 54,-9 104,28 67,50 148,120 230,140zm1692 -204c121,-3 148,-29 221,39 41,38 94,97 163,110l-11 157 -354 -273c-25,-30 -11,-23 -19,-33zm163 201c-245,17 -229,16 -348,-109 -55,-59 -49,-44 -62,-91 155,3 157,-8 245,67 58,49 137,88 165,133zm219 -161c-32,-15 -37,-22 -54,-56l57 0 -3 56zm-6192 180c-216,3 -179,78 -180,322 -139,7 -150,-22 -267,32 -3,133 -14,249 -8,387l28 770c3,118 26,253 23,357 -2,117 -12,257 -13,385 0,135 13,259 15,385 5,374 -1,1255 24,1556 21,247 15,508 32,752 17,252 -7,539 9,786 13,196 -39,603 77,706 227,35 522,-5 749,-13 418,-14 1049,8 1499,11 129,1 255,5 384,3 65,0 129,-1 193,-2 220,-4 66,7 151,18 14,2 136,-11 180,-9l2074 -18c129,-1 631,52 688,-36 27,-40 14,-89 13,-167 -1,-60 -1,-121 -2,-181 119,-8 226,22 319,24 89,1 86,-4 93,-144 1,-29 -1,-56 0,-84 4,-189 227,-10 290,-83 30,-66 -35,-1271 -19,-1497 20,-264 -7,-501 2,-770 10,-289 44,-668 -12,-949l-39 -1718c-10,-102 -10,-294 -3,-398 8,-133 -4,-268 -2,-399 1,-76 1,-105 -9,-178 -7,-47 -12,-145 -31,-163 -58,-39 -1444,-3 -1589,3 -105,5 -280,-8 -388,8 -43,7 -1031,8 -1241,24l-406 18c-147,1 -269,12 -413,16 -276,7 -561,4 -838,2 -263,-1 -1062,-51 -1235,-13 -133,30 -143,100 -148,257z"/>
    <path class="fil4" d="M4286 5876c34,-84 109,-141 164,-211 37,34 32,47 58,96 25,47 34,55 46,117l-268 -2zm-383 -5c65,-138 327,-391 405,-498 34,22 8,-1 33,32l103 233c-53,84 -152,158 -192,240l-349 -7zm494 -605c-45,38 -3,33 -69,41 -19,-43 -41,-74 -50,-127l132 3 30 58c45,-79 72,-56 190,-57 80,-1 165,-3 245,2 -16,44 -378,403 -396,413l-27 -32c-2,-3 -4,-6 -5,-9 -8,-12 -10,-21 -17,-38 -114,-262 -84,-127 -33,-254zm15 2l-1 -18c0,0 -1,-1 -1,-1 -15,-20 -26,23 2,19zm719 -762c-67,14 -375,374 -459,458 4,-1 8,-2 10,-3l196 -202c2,-2 5,-5 7,-7l95 -98c2,-2 5,-4 7,-6 2,-2 5,-5 7,-7l90 -90c16,-15 31,-38 47,-45zm-491 518c5,-48 20,-5 31,-60 -70,44 -21,75 -205,72l-496 28 -734 -49c-125,-18 -914,-6 -1026,1 -173,11 -317,23 -480,23 -332,0 -643,39 -961,66 -18,25 -35,32 -39,74 597,46 1141,4 1715,4 177,0 425,8 596,-11 170,-19 386,22 583,6 97,-8 502,-19 579,1 54,21 104,155 102,170l-335 384c-35,50 -62,95 -110,129 -42,13 -521,-119 -748,-62 -205,51 -521,69 -764,63 -190,-4 -1485,-17 -1553,14 -27,26 -44,34 -53,78 619,10 1341,38 1936,38l1094 -4c-24,81 -113,183 -112,275 52,-23 58,-67 79,-129 19,-57 50,-94 72,-145l339 2c-25,52 -148,229 -160,297 -11,69 -2,16 8,36 38,-42 53,-114 86,-174 31,-56 74,-108 100,-163l323 5c-16,35 -65,102 -91,144 -33,53 -57,83 -68,156 36,-17 83,-129 106,-170 34,-62 113,-197 178,-100 7,11 15,27 19,37 12,35 8,42 -7,74 43,3 33,0 53,26l10 -59c-53,-26 -18,8 -42,-46 -10,-22 -15,-42 -24,-66 162,-5 323,3 484,6 116,1 342,43 379,-55 -21,-29 -23,-31 -73,-42 -33,-8 -65,-6 -100,-6 -73,2 -146,1 -220,0 -148,-2 -305,-2 -452,-8 10,-41 26,-54 55,-80 30,-27 48,-30 68,-68 -95,27 -108,98 -179,139 -27,-21 -1,16 -30,-31 -2,-2 -11,-24 -13,-28 -18,-42 -77,-164 -68,-192 59,-74 135,-159 205,-222 65,-60 147,-175 213,-214 144,-57 578,82 551,-120l-402 -37 51 -54c2,-2 5,-5 7,-7l15 -13c2,-2 5,-5 7,-7 2,-2 5,-4 7,-6 18,-21 10,-10 19,-33l-85 77c-61,59 -309,37 -440,36zm138 695c10,5 -12,35 53,1 -17,-13 11,-7 -21,-9 -1,0 -28,7 -32,8zm-75 455c5,41 -6,-46 0,0zm-206 68c48,-6 40,-16 74,-46 29,-26 40,-33 76,-48 -9,-5 13,-32 -47,-5 -11,4 -86,64 -103,99z"/>
    <path class="fil4" d="M950 4586c-28,-50 -51,-77 -67,-153l159 8c-12,31 -22,44 -35,73 -26,60 -16,46 -57,72zm-24 -264l56 -38 11 70c-99,-1 -27,10 -67,-32zm-203 28l23 -80c27,21 8,-1 30,26 8,12 10,20 16,33l-69 21zm301 -611c389,-1 763,-1 1146,-15 378,-13 759,-6 1141,-15 328,-8 491,6 839,-23l851 7c76,-1 319,-19 395,-41 40,-12 65,-32 69,-76 -59,-38 -400,-1 -519,-1 -298,2 -526,-16 -853,-7 -50,2 -75,11 -123,11 -52,0 -77,-15 -133,-9 -154,16 -902,9 -1104,8 -86,-1 -170,-12 -275,-11 -203,2 -264,18 -508,16l-852 20 129 -253c14,-58 -2,-28 -6,-37 -45,23 -126,226 -153,288 -121,8 -357,-15 -414,15 -20,11 -43,32 -46,57 -7,52 0,13 6,30 52,24 320,32 380,34 -12,54 -29,80 -49,124 -27,60 -34,62 -58,108l-83 164c-8,13 -7,13 -16,26l-20 29c-60,-37 -27,-40 -124,-121l-19 17c9,44 71,173 93,206 -32,86 -97,190 -141,276l-62 143c-8,22 -24,73 -27,84 -15,50 -10,52 13,79 20,-50 -2,-82 72,-239 33,-70 80,-153 106,-222l157 17c-8,64 -91,187 -136,316 -17,49 -42,50 11,79 21,-42 0,-30 12,-79l124 -262 113 138c-22,66 -66,128 -14,159 22,-65 -14,-17 52,-175 23,-57 62,-115 79,-167 180,-6 358,-11 543,-14 155,-2 373,-5 532,-18 347,-27 732,10 1090,9 368,0 729,-10 1099,-15l784 -11c85,-3 199,4 214,-70 -51,-50 -416,-24 -516,-23 -267,4 -866,-40 -1064,-24 -174,15 -364,-4 -517,6 -184,13 -731,-44 -1073,-25l-506 45c-80,10 -174,4 -253,19l-257 29 -28 -43c-3,2 -6,3 -7,7 -10,45 -70,42 -106,39 -16,-86 -56,-76 -8,-164l135 -277c33,-74 62,-86 81,-139 -59,7 -61,27 -86,77 -41,84 -114,293 -173,347l-67 -129c-8,8 -13,-14 -11,22 2,44 39,69 51,113 18,67 -4,95 -47,156 -61,-14 -49,0 -76,-53 -59,-117 4,-149 58,-252 57,-111 102,-200 155,-310zm-340 424c24,16 10,2 27,19 42,40 36,53 15,82 -29,-39 -29,-70 -42,-101z"/>
    <path class="fil4" d="M618 2998c172,83 2077,-2 2431,-4 417,-4 842,-12 1251,-15 273,-2 658,-23 935,-16 105,2 196,2 229,-75 -15,-16 -19,-17 -37,-34 -46,-23 -1091,7 -1214,20 -200,20 -964,-6 -1232,-6 -205,-1 -396,14 -591,21l-1238 17c-72,-3 -396,-13 -461,4 -49,13 -74,37 -73,88z"/>
    <path class="fil4" d="M1455 2120c-53,-42 -68,-123 -101,-190l-108 -194c-42,-75 -72,-120 -104,-198 -32,-77 -45,-184 -145,-137 -28,144 -68,719 -75,910 -5,166 -19,230 93,244 56,-260 66,-555 70,-850 39,19 44,48 62,90l149 333c67,171 124,358 264,356 8,-53 1,-92 5,-144 4,-42 15,-87 20,-128 23,-210 77,-296 75,-533 -1,-100 -6,-204 -4,-303 -29,-74 -101,-65 -129,-67 -52,248 -61,542 -72,811z"/>
    <path class="fil4" d="M3599 2409c-56,-43 -169,-208 -180,-290l86 -135c32,-57 64,-109 -29,-126 -67,36 -70,127 -139,177 -11,-16 -40,-67 -56,-79 -15,-11 -24,-16 -50,-20 -126,-20 41,132 46,196 2,32 -92,165 -135,197l-284 -873c-17,-44 -46,-71 -92,-75 -7,83 76,415 107,517l106 361c38,107 35,212 153,219 2,-1 86,-71 109,-112 36,-62 46,-80 97,-127 47,36 177,258 247,261 76,-25 16,-21 106,-15l136 -275c10,-18 19,-48 29,-68 11,-22 31,-38 44,-65 20,-39 48,-115 63,-155l163 -470c14,-79 -11,-114 -90,-118 -125,229 -203,540 -319,804 -25,56 -84,233 -118,271z"/>
    <path class="fil4" d="M1912 2476c96,57 47,26 175,41 65,8 140,21 206,21 106,1 215,2 310,-27l-2 -90 -560 -38 42 -402c67,21 343,43 423,34 20,-39 29,-40 -10,-71 -15,-11 -9,-2 -33,-23 -15,-13 -15,-17 -32,-32 -87,33 -232,6 -341,-7 -1,-82 33,-333 63,-409 162,-13 305,23 361,15 48,-6 40,-24 96,-44 -33,-50 -7,-45 -34,-104 -90,-11 -173,1 -268,-16 -46,-9 -58,-24 -111,-28 -53,-3 -83,-6 -132,-10 -95,192 -170,957 -153,1190z"/>
    <path class="fil4" d="M4829 2097c-2,122 -63,228 -88,338 -177,-21 -344,-140 -496,-188 -43,70 -2,82 62,111 130,60 371,196 516,184 43,-54 81,-212 161,-317 76,-100 19,-89 -83,-199 -104,-112 -27,-40 -145,-129l-293 -240c20,-75 107,-208 160,-233 94,-44 225,39 295,71l25 -34c-51,-61 -277,-143 -348,-158 -95,-20 -238,233 -246,259 -32,104 112,189 210,284l270 251z"/>
    <path class="fil4" d="M355 6434c20,-33 5,-18 -1,-81 -14,-165 99,-590 84,-635 -45,23 -44,73 -53,167 -15,157 -112,474 -30,549z"/>
    <path class="fil4" d="M5221 1468c15,-31 10,-42 19,-72l228 -364c58,-80 19,-60 14,-68 -36,17 -63,78 -89,116 -30,45 -53,84 -80,127 -25,40 -54,84 -75,130 -64,145 -40,123 -17,131z"/>
    <path class="fil4" d="M5414 1971c-22,18 -62,91 -85,131 -28,47 -53,98 -52,168 3,1 8,0 9,4 2,4 8,4 10,5 2,0 7,3 9,4l48 22c13,-102 34,-126 69,-208 -71,14 -44,61 -107,136 13,-60 31,-94 58,-141l48 -88c11,-62 3,-15 -7,-33z"/>
    <path class="fil4" d="M5267 1582c19,-4 -4,-29 39,-119 67,-138 244,-360 241,-438 -47,12 -51,68 -85,124 -43,71 -217,324 -213,393 4,77 -4,14 18,40z"/>
    <path class="fil4" d="M432 6403c-6,-138 -3,-167 23,-307 16,-88 51,-203 61,-275 -57,20 -70,182 -89,284 -17,86 -42,174 -22,255 15,60 3,32 27,43z"/>
    <path class="fil4" d="M5276 1730c18,-15 87,-171 149,-259 30,-42 167,-201 154,-241 -44,12 -22,10 -90,111 -51,74 -244,307 -213,389z"/>
    <path class="fil4" d="M3809 3419c59,7 62,14 86,-22 -25,-9 11,7 -24,-5 -72,-25 63,32 -22,-8l-24 -14c2,-125 49,-233 183,-220 -33,-170 -285,119 -199,269z"/>
    <path class="fil4" d="M5185 1327c37,-153 137,-230 200,-351 31,-59 7,-44 1,-55 -53,23 6,-31 -69,97 -21,35 -45,69 -70,109 -48,75 -121,172 -62,200z"/>
    <path class="fil4" d="M2126 6398c-39,-132 13,-135 120,-147 -51,-113 -280,76 -118,195 42,-4 51,-16 76,-32 -32,-16 -25,8 -78,-16z"/>
    <path class="fil4" d="M306 1438c54,-26 -17,-24 94,-222 23,-43 39,-73 64,-115 19,-32 60,-81 42,-117 -24,22 -237,377 -200,454z"/>
    <path class="fil4" d="M287 1302c43,-28 3,-38 89,-192 24,-44 85,-151 62,-196 -18,15 -12,1 -26,36l-65 155c-22,46 -92,149 -60,197z"/>
    <path class="fil4" d="M5090 1261c62,-30 5,-16 118,-172 30,-40 110,-131 120,-176 -42,5 -90,83 -139,155 -32,46 -106,123 -99,193z"/>
    <path class="fil4" d="M5304 1826c7,-8 5,-4 15,-21l109 -179c35,-50 111,-140 120,-204 -29,15 -272,348 -244,404z"/>
    <path class="fil4" d="M5235 2128c47,-34 0,-4 50,-109 63,-129 160,-243 175,-318l-137 189c-26,45 -108,184 -88,238z"/>
    <path class="fil4" d="M386 1544c35,-218 94,-197 148,-350 -43,18 -85,109 -109,155 -40,76 -80,134 -39,195z"/>
    <path class="fil4" d="M1098 4793c27,-21 26,-83 52,-133 23,-44 48,-64 67,-120 -67,6 -151,189 -119,253z"/>
    <path class="fil4" d="M3256 1200c9,-15 3,-2 15,-28 21,-49 106,-200 95,-236 -45,28 -47,72 -69,123l-51 102c-11,74 -4,15 10,39z"/>
    <path class="fil4" d="M245 1180l65 -138c24,-51 61,-78 58,-142 -45,16 -32,43 -78,135 -19,38 -64,107 -45,145z"/>
    <path class="fil4" d="M3187 1176c40,-33 5,6 27,-44 10,-23 20,-41 29,-57 17,-30 54,-71 40,-104 -35,10 -121,171 -96,205z"/>
    <path class="fil4" d="M5526 2490c3,-15 14,-186 11,-192 -26,35 -56,103 -49,148 7,47 13,33 38,44z"/>
    <path class="fil4" d="M549 6366c-8,-137 13,-103 13,-152 0,-69 0,-20 -14,-40 -18,33 -21,65 -29,108 -2,15 -9,34 -5,51 15,54 9,22 35,33z"/>
    <path class="fil4" d="M3338 1165c38,-28 11,-14 38,-65 21,-40 31,-38 24,-87 -30,16 -69,102 -70,108 -14,59 5,39 8,44z"/>
    <path class="fil4" d="M5427 2376l21 -143c-21,13 -32,26 -42,56 -18,59 -10,70 21,87z"/>
    <path class="fil4" d="M1221 4846c7,-11 45,-137 45,-147 -35,17 -82,89 -45,147z"/>
    <path class="fil4" d="M1791 6454c-7,-98 -18,-20 15,-84l-35 -14c-27,72 5,30 -25,98l45 0z"/>
    <path class="fil4" d="M5647 2598c21,-32 47,-117 28,-157 -15,26 -38,132 -28,157z"/>
    <path class="fil4" d="M2771 6554c-6,-39 -17,-56 -55,-54 -2,48 5,56 55,54z"/>
    <path class="fil4" d="M1952 6272c-24,7 -24,-1 -37,19 -26,43 7,35 7,35 1,-1 20,16 30,-54z"/>
    <path class="fil4" d="M5070 5607c45,-60 3,-51 0,-55 -38,32 -30,27 0,55z"/>
    <path class="fil4" d="M5015 5766c-22,18 -50,56 -3,59 13,-29 22,-21 3,-59z"/>
    <path class="fil4" d="M3789 1167c-7,-56 15,-31 -42,-39 10,42 -20,35 42,39z"/>
    <path class="fil4" d="M2500 6476c37,23 36,11 54,-30 -62,12 -33,-3 -54,30z"/>
    <path class="fil4" d="M822 6450c-8,-36 -2,-27 -23,-51l-27 34 50 17z"/>
    <path class="fil4" d="M4311 3481c-8,-43 18,-27 -40,-43 12,48 -9,31 40,43z"/>
    <path class="fil4" d="M3578 1135c0,-34 -5,-39 -40,-39 6,31 8,34 40,39z"/>
    <path class="fil4" d="M2368 6380c-21,-33 -19,-31 -43,0 3,2 -10,31 43,0z"/>
    <path class="fil4" d="M3448 1129c1,-3 4,-10 4,-8 0,2 2,-7 2,-9 -1,-21 -1,-13 -6,-24 -34,17 -50,19 0,41z"/>
    <path class="fil4" d="M4041 3381c0,0 14,38 32,-42 -64,36 6,-28 -22,14l-10 28z"/>
    <path class="fil4" d="M3494 1263c44,-6 34,-6 15,-30 -8,17 -13,1 -15,30z"/>
    <path class="fil4" d="M4718 6215c7,20 12,22 10,3 0,0 -20,-33 -10,-3z"/>
   </g>
  </g>
 </g>
</svg>
