<?xml version="1.0" encoding="UTF-8" standalone="no"?>
<!-- Created with Inkscape (http://www.inkscape.org/) -->

<svg
   width="1000"
   height="1000"
   viewBox="0 0 264.58332 264.58334"
   version="1.1"
   id="svg5"
   xmlns="http://www.w3.org/2000/svg"
   xmlns:svg="http://www.w3.org/2000/svg"
   xmlns:rdf="http://www.w3.org/1999/02/22-rdf-syntax-ns#"
   xmlns:cc="http://creativecommons.org/ns#"
   xmlns:dc="http://purl.org/dc/elements/1.1/">
  <defs
     id="defs2" />
  <metadata
     id="metadata856">
    <rdf:RDF>
      <cc:Work
         rdf:about="">
        <dc:creator>
          <cc:Agent>
            <dc:title>Inspire Studio</dc:title>
          </cc:Agent>
        </dc:creator>
        <cc:license
           rdf:resource="http://creativecommons.org/publicdomain/zero/1.0/" />
        <dc:description>Thank you for using this artwork. Feel free to visit our page https://www.pinterest.com.au/inspirestudiobox for more designs. We wish you have a wonderful day, everyday. Amitabha</dc:description>
      </cc:Work>
      <cc:License
         rdf:about="http://creativecommons.org/publicdomain/zero/1.0/">
        <cc:permits
           rdf:resource="http://creativecommons.org/ns#Reproduction" />
        <cc:permits
           rdf:resource="http://creativecommons.org/ns#Distribution" />
        <cc:permits
           rdf:resource="http://creativecommons.org/ns#DerivativeWorks" />
      </cc:License>
    </rdf:RDF>
  </metadata>
  <rect
     style="fill:#f7f7f7;fill-opacity:1;stroke:none;stroke-width:10.5833;stroke-linecap:square;stroke-miterlimit:4;stroke-dasharray:none;stroke-opacity:1;paint-order:stroke markers fill"
     id="rect19307"
     width="264.58334"
     height="264.58334"
     x="-2.68573e-05"
     y="0" />
  <g
     id="g19216"
     transform="translate(-1.2494141e-5,-1.3505859e-5)">
    <circle
       style="fill:#0573e1;fill-opacity:1;stroke:none;stroke-width:0.264583;stroke-linecap:round;stroke-linejoin:round;paint-order:fill markers stroke"
       id="circle19172"
       cx="132.29167"
       cy="132.29167"
       r="13.229166" />
    <path
       id="path19174"
       style="fill:none;stroke:#4d4d4d;stroke-width:7.9375;stroke-linecap:round;stroke-linejoin:round;stroke-miterlimit:4;stroke-dasharray:none;stroke-opacity:1;paint-order:fill markers stroke"
       d="M 100.4866,164.09675 A 44.979169,44.979169 0 0 1 87.312504,132.29167 44.979169,44.979169 0 0 1 100.4866,100.4866" />
    <path
       id="path19176"
       style="fill:none;stroke:#4d4d4d;stroke-width:7.9375;stroke-linecap:round;stroke-linejoin:round;stroke-miterlimit:4;stroke-dasharray:none;stroke-opacity:1;paint-order:fill markers stroke"
       d="m 164.09675,100.4866 a 44.979169,44.979169 0 0 1 13.17409,31.80507 v 0 a 44.979169,44.979169 0 0 1 -13.17409,31.80508" />
    <path
       id="path19178"
       style="fill:none;stroke:#4d4d4d;stroke-width:7.9375;stroke-linecap:round;stroke-linejoin:round;stroke-miterlimit:4;stroke-dasharray:none;stroke-opacity:1;paint-order:fill markers stroke"
       d="M 88.325821,176.25749 A 62.177083,62.177083 0 0 1 70.114575,132.29166 62.177083,62.177083 0 0 1 88.325821,88.325821" />
    <path
       id="path19180"
       style="fill:none;stroke:#4d4d4d;stroke-width:7.9375;stroke-linecap:round;stroke-linejoin:round;stroke-miterlimit:4;stroke-dasharray:none;stroke-opacity:1;paint-order:fill markers stroke"
       d="m 176.25749,88.325821 a 62.177083,62.177083 0 0 1 18.21125,43.965839 v 0 a 62.177083,62.177083 0 0 1 -18.21125,43.96583" />
    <path
       id="path19182"
       style="fill:none;stroke:#4d4d4d;stroke-width:7.93747;stroke-linecap:round;stroke-linejoin:round;stroke-miterlimit:4;stroke-dasharray:none;stroke-opacity:1;paint-order:fill markers stroke"
       d="m 112.64735,151.93599 a 27.78126,27.78126 0 0 1 -8.13694,-19.64432 27.78126,27.78126 0 0 1 8.13694,-19.64432" />
    <path
       id="path19184"
       style="fill:none;stroke:#4d4d4d;stroke-width:7.93747;stroke-linecap:round;stroke-linejoin:round;stroke-miterlimit:4;stroke-dasharray:none;stroke-opacity:1;paint-order:fill markers stroke"
       d="m 151.93599,112.64735 a 27.78126,27.78126 0 0 1 8.13694,19.64432 v 0 a 27.78126,27.78126 0 0 1 -8.13694,19.64432" />
  </g>
</svg>
